<svg id="visual" viewBox="0 0 900 450" width="900" height="450" xmlns="http://www.w3.org/2000/svg" xmlns:xlink="http://www.w3.org/1999/xlink" version="1.1"><path d="M0 154L21.5 149.8C43 145.7 86 137.3 128.8 138.5C171.7 139.7 214.3 150.3 257.2 148.3C300 146.3 343 131.7 385.8 124.8C428.7 118 471.3 119 514.2 129.2C557 139.3 600 158.7 642.8 166.5C685.7 174.3 728.3 170.7 771.2 162.2C814 153.7 857 140.3 878.5 133.7L900 127L900 0L878.5 0C857 0 814 0 771.2 0C728.3 0 685.7 0 642.8 0C600 0 557 0 514.2 0C471.3 0 428.7 0 385.8 0C343 0 300 0 257.2 0C214.3 0 171.7 0 128.8 0C86 0 43 0 21.5 0L0 0Z" fill="#fa7268"></path><path d="M0 134L21.5 128.3C43 122.7 86 111.3 128.8 103.8C171.7 96.3 214.3 92.7 257.2 96.5C300 100.3 343 111.7 385.8 111.7C428.7 111.7 471.3 100.3 514.2 95.3C557 90.3 600 91.7 642.8 96.5C685.7 101.3 728.3 109.7 771.2 114.8C814 120 857 122 878.5 123L900 124L900 0L878.5 0C857 0 814 0 771.2 0C728.3 0 685.7 0 642.8 0C600 0 557 0 514.2 0C471.3 0 428.7 0 385.8 0C343 0 300 0 257.2 0C214.3 0 171.7 0 128.8 0C86 0 43 0 21.5 0L0 0Z" fill="#ef5f67"></path><path d="M0 113L21.5 111.5C43 110 86 107 128.8 107.5C171.7 108 214.3 112 257.2 108.5C300 105 343 94 385.8 92.5C428.7 91 471.3 99 514.2 104C557 109 600 111 642.8 104C685.7 97 728.3 81 771.2 76.8C814 72.7 857 80.3 878.5 84.2L900 88L900 0L878.5 0C857 0 814 0 771.2 0C728.3 0 685.7 0 642.8 0C600 0 557 0 514.2 0C471.3 0 428.7 0 385.8 0C343 0 300 0 257.2 0C214.3 0 171.7 0 128.8 0C86 0 43 0 21.5 0L0 0Z" fill="#e34c67"></path><path d="M0 85L21.5 78.3C43 71.7 86 58.3 128.8 55.3C171.7 52.3 214.3 59.7 257.2 61.8C300 64 343 61 385.8 56.8C428.7 52.7 471.3 47.3 514.2 46.3C557 45.3 600 48.7 642.8 56.3C685.7 64 728.3 76 771.2 81.8C814 87.7 857 87.3 878.5 87.2L900 87L900 0L878.5 0C857 0 814 0 771.2 0C728.3 0 685.7 0 642.8 0C600 0 557 0 514.2 0C471.3 0 428.7 0 385.8 0C343 0 300 0 257.2 0C214.3 0 171.7 0 128.8 0C86 0 43 0 21.5 0L0 0Z" fill="#d53867"></path><path d="M0 19L21.5 20.2C43 21.3 86 23.7 128.8 28.7C171.7 33.7 214.3 41.3 257.2 40C300 38.7 343 28.3 385.8 23.8C428.7 19.3 471.3 20.7 514.2 21.5C557 22.3 600 22.7 642.8 25.2C685.7 27.7 728.3 32.3 771.2 37.2C814 42 857 47 878.5 49.5L900 52L900 0L878.5 0C857 0 814 0 771.2 0C728.3 0 685.7 0 642.8 0C600 0 557 0 514.2 0C471.3 0 428.7 0 385.8 0C343 0 300 0 257.2 0C214.3 0 171.7 0 128.8 0C86 0 43 0 21.5 0L0 0Z" fill="#c62368"></path></svg>