<svg id="visual" viewBox="0 0 900 450" width="900" height="450" xmlns="http://www.w3.org/2000/svg" xmlns:xlink="http://www.w3.org/1999/xlink" version="1.1"><path d="M0 294L21.5 298.2C43 302.3 86 310.7 128.8 309.5C171.7 308.3 214.3 297.7 257.2 299.7C300 301.7 343 316.3 385.8 323.2C428.7 330 471.3 329 514.2 318.8C557 308.7 600 289.3 642.8 281.5C685.7 273.7 728.3 277.3 771.2 285.8C814 294.3 857 307.7 878.5 314.3L900 321L900 451L878.5 451C857 451 814 451 771.2 451C728.3 451 685.7 451 642.8 451C600 451 557 451 514.2 451C471.3 451 428.7 451 385.8 451C343 451 300 451 257.2 451C214.3 451 171.7 451 128.8 451C86 451 43 451 21.5 451L0 451Z" fill="#fa7268"></path><path d="M0 314L21.5 319.7C43 325.3 86 336.7 128.8 344.2C171.7 351.7 214.3 355.3 257.2 351.5C300 347.7 343 336.3 385.8 336.3C428.7 336.3 471.3 347.7 514.2 352.7C557 357.7 600 356.3 642.8 351.5C685.7 346.7 728.3 338.3 771.2 333.2C814 328 857 326 878.5 325L900 324L900 451L878.5 451C857 451 814 451 771.2 451C728.3 451 685.7 451 642.8 451C600 451 557 451 514.2 451C471.3 451 428.7 451 385.8 451C343 451 300 451 257.2 451C214.3 451 171.7 451 128.8 451C86 451 43 451 21.5 451L0 451Z" fill="#ef5f67"></path><path d="M0 335L21.5 336.5C43 338 86 341 128.8 340.5C171.7 340 214.3 336 257.2 339.5C300 343 343 354 385.8 355.5C428.7 357 471.3 349 514.2 344C557 339 600 337 642.8 344C685.7 351 728.3 367 771.2 371.2C814 375.3 857 367.7 878.5 363.8L900 360L900 451L878.5 451C857 451 814 451 771.2 451C728.3 451 685.7 451 642.8 451C600 451 557 451 514.2 451C471.3 451 428.7 451 385.8 451C343 451 300 451 257.2 451C214.3 451 171.7 451 128.8 451C86 451 43 451 21.5 451L0 451Z" fill="#e34c67"></path><path d="M0 363L21.5 369.7C43 376.3 86 389.7 128.8 392.7C171.7 395.7 214.3 388.3 257.2 386.2C300 384 343 387 385.8 391.2C428.7 395.3 471.3 400.7 514.2 401.7C557 402.7 600 399.3 642.8 391.7C685.7 384 728.3 372 771.2 366.2C814 360.3 857 360.7 878.5 360.8L900 361L900 451L878.5 451C857 451 814 451 771.2 451C728.3 451 685.7 451 642.8 451C600 451 557 451 514.2 451C471.3 451 428.7 451 385.8 451C343 451 300 451 257.2 451C214.3 451 171.7 451 128.8 451C86 451 43 451 21.5 451L0 451Z" fill="#d53867"></path><path d="M0 429L21.5 427.8C43 426.7 86 424.3 128.8 419.3C171.7 414.3 214.3 406.7 257.2 408C300 409.3 343 419.7 385.8 424.2C428.7 428.7 471.3 427.3 514.2 426.5C557 425.7 600 425.3 642.8 422.8C685.7 420.3 728.3 415.7 771.2 410.8C814 406 857 401 878.5 398.5L900 396L900 451L878.5 451C857 451 814 451 771.2 451C728.3 451 685.7 451 642.8 451C600 451 557 451 514.2 451C471.3 451 428.7 451 385.8 451C343 451 300 451 257.2 451C214.3 451 171.7 451 128.8 451C86 451 43 451 21.5 451L0 451Z" fill="#c62368"></path></svg>